ply
format ascii 1.0
comment Created by Blender3D 249 - www.blender.org, source file: ship.blend
element vertex 250
property float x
property float y
property float z
property float nx
property float ny
property float nz
element face 92
property list uchar uint vertex_indices
end_header
-1.756436 0.000000 -0.000000 -1.000000 0.000000 0.000000 
-1.756436 0.866172 -0.009892 -1.000000 0.000000 0.000000 
-1.756436 0.000293 -0.337478 -1.000000 0.000000 0.000000 
-1.756436 -0.865879 -0.010400 -1.000000 0.000000 0.000000 
-1.756436 -0.185704 0.223621 -1.000000 0.000000 0.000000 
-1.756436 0.185412 0.224129 -1.000000 0.000000 0.000000 
-2.221267 2.048430 0.000745 -0.646976 -0.247886 -0.721093 
-1.756436 0.866172 -0.009892 -0.646976 -0.247886 -0.721093 
-1.756436 0.185412 0.224129 -0.646976 -0.247886 -0.721093 
-1.756436 -0.865879 -0.010400 -0.646464 0.248218 -0.721438 
-2.221268 -2.048430 -0.000745 -0.646464 0.248218 -0.721438 
-1.756436 -0.185704 0.223621 -0.646464 0.248218 -0.721438 
0.605352 0.216543 -0.124936 0.160614 0.313869 -0.935783 
1.756436 -0.000000 0.000000 0.160614 0.313869 -0.935783 
0.878218 0.000073 -0.150709 0.160614 0.313869 -0.935783 
0.878218 0.000073 -0.150709 0.160599 -0.313222 -0.936002 
1.756436 -0.000000 0.000000 0.160599 -0.313222 -0.936002 
0.605352 -0.216470 -0.125063 0.160599 -0.313222 -0.936002 
-1.756436 -0.865879 -0.010400 -0.276511 0.100886 -0.955701 
-0.878218 -0.649409 -0.241642 -0.276511 0.100886 -0.955701 
-2.221268 -2.048430 -0.000745 -0.276511 0.100886 -0.955701 
-1.756436 0.866172 -0.009892 -0.276489 -0.100109 -0.955789 
-2.221267 2.048430 0.000745 -0.276489 -0.100109 -0.955789 
-0.878218 0.649629 -0.241261 -0.276489 -0.100109 -0.955789 
0.585479 -0.288724 0.166582 0.997617 -0.035417 0.059206 
0.555604 -1.409363 -0.000413 0.997617 -0.035417 0.059206 
0.605352 -0.216470 -0.125063 0.997617 -0.035417 0.059206 
0.585479 0.288626 0.166751 0.997617 0.035382 0.059227 
0.605352 0.216543 -0.124936 0.997617 0.035382 0.059227 
0.555605 1.409363 0.000413 0.997617 0.035382 0.059227 
1.756436 -0.000000 0.000000 0.266944 -0.701188 0.661117 
0.379708 -0.000098 0.555788 0.266944 -0.701188 0.661117 
0.585479 -0.288724 0.166582 0.266944 -0.701188 0.661117 
1.756436 -0.000000 0.000000 0.266955 0.700925 0.661391 
0.585479 0.288626 0.166751 0.266955 0.700925 0.661391 
0.379708 -0.000098 0.555788 0.266955 0.700925 0.661391 
1.756436 -0.000000 0.000000 0.203471 -0.953496 -0.222360 
0.585479 -0.288724 0.166582 0.203471 -0.953496 -0.222360 
0.605352 -0.216470 -0.125063 0.203471 -0.953496 -0.222360 
1.756436 -0.000000 0.000000 0.203471 0.953627 -0.221802 
0.605352 0.216543 -0.124936 0.203471 0.953627 -0.221802 
0.585479 0.288626 0.166751 0.203471 0.953627 -0.221802 
-1.756436 -0.109832 0.624052 -1.000000 -0.000000 0.000000 
-1.756436 -0.109832 0.624052 -1.000000 -0.000002 -0.000000 
-1.756436 -0.000293 1.202175 -1.000000 -0.000002 -0.000000 
-1.756436 0.000000 -0.000000 -1.000000 -0.000002 -0.000000 
-1.756436 -0.000293 1.202175 -1.000000 0.000002 -0.000000 
-1.756436 0.109477 0.624052 -1.000000 0.000002 -0.000000 
-1.756436 0.000000 -0.000000 -1.000000 0.000002 -0.000000 
-1.756436 0.109477 0.624052 -1.000000 0.000001 -0.000000 
-1.756436 0.185412 0.224129 -1.000000 0.000001 -0.000000 
-1.756436 0.000000 -0.000000 -1.000000 0.000001 -0.000000 
-0.657755 -0.271012 0.606494 0.220966 -0.723852 0.653615 
0.585479 -0.288724 0.166582 0.220966 -0.723852 0.653615 
0.379708 -0.000098 0.555788 0.220966 -0.723852 0.653615 
-1.756436 -0.000293 1.202175 0.212112 -0.681121 0.700772 
-0.657755 -0.271012 0.606494 0.212112 -0.681121 0.700772 
0.379708 -0.000098 0.555788 0.212112 -0.681121 0.700772 
-0.657755 -0.271012 0.606494 0.256898 -0.608856 0.750532 
-0.000000 -0.433086 0.249873 0.256898 -0.608856 0.750532 
0.585479 -0.288724 0.166582 0.256898 -0.608856 0.750532 
-0.657462 0.270774 0.606493 0.220948 0.723608 0.653891 
0.379708 -0.000098 0.555788 0.220948 0.723608 0.653891 
0.585479 0.288626 0.166751 0.220948 0.723608 0.653891 
0.000000 0.432939 0.250127 0.256904 0.608465 0.750847 
-0.657462 0.270774 0.606493 0.256904 0.608465 0.750847 
0.585479 0.288626 0.166751 0.256904 0.608465 0.750847 
-0.657462 0.270774 0.606493 0.212080 0.680819 0.701076 
-1.756436 -0.000293 1.202175 0.212080 0.680819 0.701076 
0.379708 -0.000098 0.555788 0.212080 0.680819 0.701076 
-0.657755 -0.271012 0.606494 -0.139778 -0.972873 0.184335 
-1.756436 -0.000293 1.202175 -0.139778 -0.972873 0.184335 
-1.756436 -0.109832 0.624052 -0.139778 -0.972873 0.184335 
-1.756436 0.109477 0.624052 -0.139826 0.972796 0.184707 
-1.756436 -0.000293 1.202175 -0.139826 0.972796 0.184707 
-0.657462 0.270774 0.606493 -0.139826 0.972796 0.184707 
-2.295973 0.044739 0.536061 -0.999989 0.004523 0.000859 
-2.295609 0.124001 0.543063 -0.999989 0.004523 0.000859 
-2.295609 0.161345 0.346386 -0.999989 0.004523 0.000859 
-2.295973 0.085755 0.320043 -0.999989 0.004523 0.000859 
-1.756436 0.109477 0.624052 0.146699 -0.971818 -0.184522 
-2.295973 0.044739 0.536061 0.146699 -0.971818 -0.184522 
-2.295973 0.085755 0.320043 0.146699 -0.971818 -0.184522 
-1.756436 0.185412 0.224129 0.146699 -0.971818 -0.184522 
-1.756436 0.185412 0.224129 -0.223013 0.321758 -0.920183 
-2.295973 0.085755 0.320043 -0.223013 0.321758 -0.920183 
-2.295609 0.161345 0.346386 -0.223013 0.321758 -0.920183 
-1.756436 0.185412 0.224129 -0.223671 0.299818 -0.927405 
-2.295609 0.161345 0.346386 -0.223671 0.299818 -0.927405 
-1.770984 0.434033 0.308013 -0.223671 0.299818 -0.927405 
-1.770984 0.434033 0.308013 -0.384986 0.804358 0.452541 
-2.295609 0.161345 0.346386 -0.384986 0.804358 0.452541 
-1.755761 0.256218 0.637016 -0.384986 0.804358 0.452541 
-2.295609 0.161345 0.346386 -0.263435 0.947745 0.179951 
-2.295609 0.124001 0.543063 -0.263435 0.947745 0.179951 
-1.755761 0.256218 0.637016 -0.263435 0.947745 0.179951 
-1.755761 0.256218 0.637016 -0.150262 -0.086314 0.984871 
-2.295609 0.124001 0.543063 -0.150262 -0.086314 0.984871 
-1.756436 0.109477 0.624052 -0.150262 -0.086314 0.984871 
-2.295973 0.044739 0.536061 -0.150262 -0.086314 0.984871 
-2.295974 -0.115553 0.319768 -0.999990 -0.004479 0.000849 
-2.295596 -0.194935 0.346102 -0.999990 -0.004479 0.000849 
-2.295974 -0.074571 0.536060 -0.999990 -0.004479 0.000849 
-2.295596 -0.157622 0.543029 -0.999990 -0.004479 0.000849 
-1.756436 -0.185704 0.223621 0.094153 0.978154 -0.185336 
-2.295974 -0.115553 0.319768 0.094153 0.978154 -0.185336 
-1.756436 -0.109832 0.624052 0.094153 0.978154 -0.185336 
-2.295974 -0.074571 0.536060 0.094153 0.978154 -0.185336 
-1.756436 -0.109832 0.624052 -0.155204 0.081907 0.984481 
-2.295974 -0.074571 0.536060 -0.155204 0.081907 0.984481 
-2.295596 -0.157622 0.543029 -0.155204 0.081907 0.984481 
-1.756436 -0.109832 0.624052 -0.155204 0.081909 0.984481 
-2.295596 -0.157622 0.543029 -0.155204 0.081909 0.984481 
-1.755737 -0.263588 0.636955 -0.155204 0.081909 0.984481 
-1.755737 -0.263588 0.636955 -0.219737 -0.958505 0.181613 
-2.295596 -0.157622 0.543029 -0.219737 -0.958505 0.181613 
-2.295596 -0.194935 0.346102 -0.219737 -0.958505 0.181613 
-1.755737 -0.263588 0.636955 -0.330659 -0.848340 0.413502 
-2.295596 -0.194935 0.346102 -0.330659 -0.848340 0.413502 
-1.767806 -0.415194 0.316269 -0.330659 -0.848340 0.413502 
-1.767806 -0.415194 0.316269 -0.200997 -0.358136 -0.911778 
-2.295596 -0.194935 0.346102 -0.200997 -0.358136 -0.911778 
-1.756436 -0.185704 0.223621 -0.200997 -0.358136 -0.911778 
-2.295596 -0.194935 0.346102 -0.205649 -0.309025 -0.928554 
-2.295974 -0.115553 0.319768 -0.205649 -0.309025 -0.928554 
-1.756436 -0.185704 0.223621 -0.205649 -0.309025 -0.928554 
-0.156560 -0.664935 0.296277 -0.131300 -0.883155 0.450331 
-0.755424 -0.410336 0.620968 -0.131300 -0.883155 0.450331 
-1.767806 -0.415194 0.316269 -0.131300 -0.883155 0.450331 
-0.755424 -0.410336 0.620968 -0.124492 -0.895211 0.427901 
-1.755737 -0.263588 0.636955 -0.124492 -0.895211 0.427901 
-1.767806 -0.415194 0.316269 -0.124492 -0.895211 0.427901 
-0.000000 -0.433086 0.249873 -0.038707 -0.170913 -0.984526 
-0.156560 -0.664935 0.296277 -0.038707 -0.170913 -0.984526 
-1.767806 -0.415194 0.316269 -0.038707 -0.170913 -0.984526 
-0.000000 -0.433086 0.249873 -0.038595 -0.372431 -0.927257 
-1.767806 -0.415194 0.316269 -0.038595 -0.372431 -0.927257 
-1.756436 -0.185704 0.223621 -0.038595 -0.372431 -0.927257 
-1.756436 -0.109832 0.624052 0.028200 0.083717 0.996090 
-1.755737 -0.263588 0.636955 0.028200 0.083717 0.996090 
-0.657755 -0.271012 0.606494 0.028200 0.083717 0.996090 
-0.755424 -0.410336 0.620968 0.028200 0.083717 0.996090 
-0.657755 -0.271012 0.606494 0.426292 -0.207362 0.880498 
-0.755424 -0.410336 0.620968 0.426292 -0.207362 0.880498 
-0.000000 -0.433086 0.249873 0.426292 -0.207362 0.880498 
-0.755424 -0.410336 0.620968 0.435185 -0.115144 0.892948 
-0.156560 -0.664935 0.296277 0.435185 -0.115144 0.892948 
-0.000000 -0.433086 0.249873 0.435185 -0.115144 0.892948 
-1.770984 0.434033 0.308013 -0.120229 0.871015 0.476317 
-1.755761 0.256218 0.637016 -0.120229 0.871015 0.476317 
-0.755181 0.403074 0.621029 -0.120229 0.871015 0.476317 
-1.770984 0.434033 0.308013 -0.117946 0.875118 0.469316 
-0.755181 0.403074 0.621029 -0.117946 0.875118 0.469316 
-0.156584 0.657756 0.296569 -0.117946 0.875118 0.469316 
-1.756436 0.185412 0.224129 -0.030778 0.317924 -0.947616 
-1.770984 0.434033 0.308013 -0.030778 0.317924 -0.947616 
0.000000 0.432939 0.250127 -0.030778 0.317924 -0.947616 
-1.770984 0.434033 0.308013 -0.032019 0.180766 -0.983005 
-0.156584 0.657756 0.296569 -0.032019 0.180766 -0.983005 
0.000000 0.432939 0.250127 -0.032019 0.180766 -0.983005 
0.000000 0.432939 0.250127 0.434017 0.117782 0.893172 
-0.156584 0.657756 0.296569 0.434017 0.117782 0.893172 
-0.755181 0.403074 0.621029 0.434017 0.117782 0.893172 
0.000000 0.432939 0.250127 0.423519 0.216166 0.879718 
-0.755181 0.403074 0.621029 0.423519 0.216166 0.879718 
-0.657462 0.270774 0.606493 0.423519 0.216166 0.879718 
-0.657462 0.270774 0.606493 0.028838 -0.088094 0.995695 
-0.755181 0.403074 0.621029 0.028838 -0.088094 0.995695 
-1.755761 0.256218 0.637016 0.028838 -0.088094 0.995695 
-1.756436 0.109477 0.624052 0.028838 -0.088094 0.995695 
-0.644547 1.091202 0.000616 -0.037137 0.139458 -0.989531 
0.555605 1.409363 0.000413 -0.037137 0.139458 -0.989531 
0.000000 0.433086 -0.116325 -0.037137 0.139458 -0.989531 
0.555605 1.409363 0.000413 0.023580 0.105455 -0.994144 
0.605352 0.216543 -0.124936 0.023580 0.105455 -0.994144 
0.000000 0.433086 -0.116325 0.023580 0.105455 -0.994144 
-2.221267 2.048430 0.000745 0.226405 0.373049 -0.899764 
-0.644547 1.091202 0.000616 0.226405 0.373049 -0.899764 
-0.878218 0.649629 -0.241261 0.226405 0.373049 -0.899764 
-0.644547 1.091202 0.000616 0.220758 0.376108 -0.899894 
0.000000 0.433086 -0.116325 0.220758 0.376108 -0.899894 
-0.878218 0.649629 -0.241261 0.220758 0.376108 -0.899894 
-0.644547 -1.091201 -0.000616 -0.036562 -0.138547 -0.989681 
-0.000000 -0.432939 -0.116579 -0.036562 -0.138547 -0.989681 
0.555604 -1.409363 -0.000413 -0.036562 -0.138547 -0.989681 
-0.000000 -0.432939 -0.116579 0.023566 -0.104872 -0.994207 
0.605352 -0.216470 -0.125063 0.023566 -0.104872 -0.994207 
0.555604 -1.409363 -0.000413 0.023566 -0.104872 -0.994207 
-2.221268 -2.048430 -0.000745 0.225801 -0.371812 -0.900428 
-0.878218 -0.649409 -0.241642 0.225801 -0.371812 -0.900428 
-0.644547 -1.091201 -0.000616 0.225801 -0.371812 -0.900428 
-0.878218 -0.649409 -0.241642 0.220587 -0.374636 -0.900549 
-0.000000 -0.432939 -0.116579 0.220587 -0.374636 -0.900549 
-0.644547 -1.091201 -0.000616 0.220587 -0.374636 -0.900549 
0.000000 0.000147 -0.167869 0.019328 -0.141570 -0.989740 
0.878218 0.000073 -0.150709 0.019328 -0.141570 -0.989740 
0.605352 -0.216470 -0.125063 0.019328 -0.141570 -0.989740 
0.000000 0.000147 -0.167869 0.028126 -0.117562 -0.992667 
0.605352 -0.216470 -0.125063 0.028126 -0.117562 -0.992667 
-0.000000 -0.432939 -0.116579 0.028126 -0.117562 -0.992667 
-0.878218 0.000220 -0.318578 0.167985 -0.115937 -0.978948 
0.000000 0.000147 -0.167869 0.167985 -0.115937 -0.978948 
-0.000000 -0.432939 -0.116579 0.167985 -0.115937 -0.978948 
-0.878218 -0.649409 -0.241642 0.167985 -0.115937 -0.978948 
-1.756436 0.000293 -0.337478 0.021357 -0.117582 -0.992833 
-0.878218 0.000220 -0.318578 0.021357 -0.117582 -0.992833 
-0.878218 -0.649409 -0.241642 0.021357 -0.117582 -0.992833 
-1.756436 0.000293 -0.337478 -0.157273 -0.348870 -0.923880 
-0.878218 -0.649409 -0.241642 -0.157273 -0.348870 -0.923880 
-1.756436 -0.865879 -0.010400 -0.157273 -0.348870 -0.923880 
0.000000 0.433086 -0.116325 0.028152 0.118175 -0.992594 
0.605352 0.216543 -0.124936 0.028152 0.118175 -0.992594 
0.000000 0.000147 -0.167869 0.028152 0.118175 -0.992594 
0.605352 0.216543 -0.124936 0.019350 0.142215 -0.989647 
0.878218 0.000073 -0.150709 0.019350 0.142215 -0.989647 
0.000000 0.000147 -0.167869 0.019350 0.142215 -0.989647 
-0.878218 0.649629 -0.241261 0.167992 0.116542 -0.978875 
0.000000 0.433086 -0.116325 0.167992 0.116542 -0.978875 
-0.878218 0.000220 -0.318578 0.167992 0.116542 -0.978875 
0.000000 0.000147 -0.167869 0.167992 0.116542 -0.978875 
-1.756436 0.866172 -0.009892 -0.157180 0.349453 -0.923676 
-0.878218 0.649629 -0.241261 -0.157180 0.349453 -0.923676 
-1.756436 0.000293 -0.337478 -0.157180 0.349453 -0.923676 
-0.878218 0.649629 -0.241261 0.021375 0.118195 -0.992760 
-0.878218 0.000220 -0.318578 0.021375 0.118195 -0.992760 
-1.756436 0.000293 -0.337478 0.021375 0.118195 -0.992760 
-0.644547 -1.091201 -0.000616 -0.076585 -0.288283 0.954478 
0.555604 -1.409363 -0.000413 -0.076585 -0.288283 0.954478 
-0.000000 -0.433086 0.249873 -0.076585 -0.288283 0.954478 
0.555604 -1.409363 -0.000413 0.175336 -0.149678 0.973064 
0.585479 -0.288724 0.166582 0.175336 -0.149678 0.973064 
-0.000000 -0.433086 0.249873 0.175336 -0.149678 0.973064 
0.555605 1.409363 0.000413 -0.076041 0.287446 0.954774 
-0.644547 1.091202 0.000616 -0.076041 0.287446 0.954774 
0.000000 0.432939 0.250127 -0.076041 0.287446 0.954774 
0.555605 1.409363 0.000413 0.175336 0.149107 0.973152 
0.000000 0.432939 0.250127 0.175336 0.149107 0.973152 
0.585479 0.288626 0.166751 0.175336 0.149107 0.973152 
-2.221268 -2.048430 -0.000745 0.084923 -0.140016 0.986501 
-0.644547 -1.091201 -0.000616 0.084923 -0.140016 0.986501 
-1.756436 -0.185704 0.223621 0.084923 -0.140016 0.986501 
-0.644547 -1.091201 -0.000616 -0.057256 -0.305667 0.950415 
-0.000000 -0.433086 0.249873 -0.057256 -0.305667 0.950415 
-1.756436 -0.185704 0.223621 -0.057256 -0.305667 0.950415 
-0.644547 1.091202 0.000616 0.084734 0.139439 0.986599 
-2.221267 2.048430 0.000745 0.084734 0.139439 0.986599 
-1.756436 0.185412 0.224129 0.084734 0.139439 0.986599 
-0.644547 1.091202 0.000616 -0.056996 0.304580 0.950780 
-1.756436 0.185412 0.224129 -0.056996 0.304580 0.950780 
0.000000 0.432939 0.250127 -0.056996 0.304580 0.950780 
3 0 1 2 
3 0 2 3 
3 0 3 4 
3 5 1 0 
3 6 7 8 
3 9 10 11 
3 12 13 14 
3 15 16 17 
3 18 19 20 
3 21 22 23 
3 24 25 26 
3 27 28 29 
3 30 31 32 
3 33 34 35 
3 36 37 38 
3 39 40 41 
3 4 42 0 
3 43 44 45 
3 46 47 48 
3 49 50 51 
3 52 53 54 
3 55 56 57 
3 58 59 60 
3 61 62 63 
3 64 65 66 
3 67 68 69 
3 70 71 72 
3 73 74 75 
3 76 77 78 
3 76 78 79 
3 80 81 82 
3 80 82 83 
3 84 85 86 
3 87 88 89 
3 90 91 92 
3 93 94 95 
3 96 97 98 
3 97 99 98 
3 100 101 102 
3 101 103 102 
3 104 105 106 
3 105 107 106 
3 108 109 110 
3 111 112 113 
3 114 115 116 
3 117 118 119 
3 120 121 122 
3 123 124 125 
3 126 127 128 
3 129 130 131 
3 132 133 134 
3 135 136 137 
3 138 139 140 
3 139 141 140 
3 142 143 144 
3 145 146 147 
3 148 149 150 
3 151 152 153 
3 154 155 156 
3 157 158 159 
3 160 161 162 
3 163 164 165 
3 166 167 168 
3 166 168 169 
3 170 171 172 
3 173 174 175 
3 176 177 178 
3 179 180 181 
3 182 183 184 
3 185 186 187 
3 188 189 190 
3 191 192 193 
3 194 195 196 
3 197 198 199 
3 200 201 202 
3 200 202 203 
3 204 205 206 
3 207 208 209 
3 210 211 212 
3 213 214 215 
3 216 217 218 
3 217 219 218 
3 220 221 222 
3 223 224 225 
3 226 227 228 
3 229 230 231 
3 232 233 234 
3 235 236 237 
3 238 239 240 
3 241 242 243 
3 244 245 246 
3 247 248 249 
